# xmcd
#
# Track frame offsets:
#   150
#   28863
#   65500
#   97308
#   127232
#   162416
#   176422
#   202514
#   232263
#
# Disc length: 3570 seconds
#
# Revision: 0
# Processed by: cddbd v1.5.2PL0 Copyright (c) Steve Scherf et al.
# Submitted via: GXTranscoder 2.0.1939
#
DISCID=810df009
DTITLE=Judy Winter - Ali Baba und die 40 Räuber
DYEAR=1900
DGENRE=Blues
TTITLE0=Sesam öffne dich
TTITLE1=Kassims Ende
TTITLE2=Die kluge Dienerin
TTITLE3=Der Zorn des Hauptmanns
TTITLE4=Tod der Räuber
TTITLE5=Ali Babas Entsetzen
TTITLE6=Morgianes Bericht
TTITLE7=Ein falscher Kaufmann
TTITLE8=Der Tanz des Todes
EXTD=
EXTT0=
EXTT1=
EXTT2=
EXTT3=
EXTT4=
EXTT5=
EXTT6=
EXTT7=
EXTT8=
PLAYORDER=
